<?xml version="1.0" encoding="UTF-8"?>
<!DOCTYPE svg PUBLIC "-//W3C//DTD SVG 1.1//EN" "http://www.w3.org/Graphics/SVG/1.1/DTD/svg11.dtd">
<!-- Creator: CorelDRAW -->
<svg xmlns="http://www.w3.org/2000/svg" xml:space="preserve" width="12.6998mm" height="12.6998mm" version="1.1" style="shape-rendering:geometricPrecision; text-rendering:geometricPrecision; image-rendering:optimizeQuality; fill-rule:evenodd; clip-rule:evenodd"
viewBox="0 0 1269.98 1269.98"
 xmlns:xlink="http://www.w3.org/1999/xlink"
 xmlns:xodm="http://www.corel.com/coreldraw/odm/2003">
 <defs>
  <style type="text/css">
   <![CDATA[
    .fil0 {fill:#1A120E}
    .fil5 {fill:#2B3235}
    .fil4 {fill:#3C5261}
    .fil1 {fill:#55290C}
    .fil2 {fill:#624D32}
    .fil3 {fill:#A18343}
    .fil6 {fill:#C5AD84}
   ]]>
  </style>
 </defs>
 <g id="Camada_x0020_1">
  <metadata id="CorelCorpID_0Corel-Layer"/>
  <g id="_2650913542528">
   <path class="fil0" d="M634.99 4.12c222.84,0 418.69,115.54 530.92,289.98 5.02,10.34 8.75,19.62 15.4,25.24 2.12,3.66 4.19,7.34 6.23,11.04 4.54,11.1 10.81,22.61 17.01,33.86 1.06,1.93 2.03,3.72 2.94,5.47 2,4.3 3.95,8.64 5.85,13 0.38,1 0.75,2.04 1.13,3.14 3.19,9.26 4.5,16.32 10.03,24.37l0.18 2.12 2.73 5.31 0.52 1.43c2.74,15.57 13.61,45.66 18.53,64.73 6.24,24.25 9.96,47.33 13.41,73.04l2.61 41.04c0.08,39.72 2.24,74.64 -1.9,112.93 -4.18,38.59 -11.53,62.88 -20.38,97.19 -40.46,156.87 -170.5,313.62 -321.06,388.47 -17.21,7.22 -39.84,18.08 -55.23,26.3l0.26 0.14c-71.04,27.71 -148.33,42.94 -229.18,42.94 -105.05,0 -204.09,-25.71 -291.21,-71.13 -6.75,-4.55 -16.34,-9.19 -29.68,-16.51 -185.54,-109.84 -309.98,-311.99 -309.98,-543.23 0,-348.42 282.45,-630.87 630.87,-630.87zm-42.53 631.47l37.31 56.63c24.4,34.27 -5.31,34.27 21.17,64.6 -50.45,5.54 -77.53,-13.4 -77.39,36.36l157.53 1.99c-1.39,11.25 0.03,11 -12.33,12.1l-75.8 -0.29c-118.06,0 -110.72,-20.19 -110.72,88.39l481.36 0.84c-7.08,5.55 -8.02,11.14 -14.32,19.4 -13.06,17.16 -38.12,45.56 -54.91,58.79 -19.75,15.56 -42.53,36.36 -63.8,49.6 -149.78,93.28 -339.68,94.36 -487.67,3.11 -47.36,-29.2 -34.18,-24.63 -64.56,-48.9 -20.4,-16.3 -38.08,-35.49 -55.38,-55.16 -11.98,-13.61 -16.36,-26.69 -30.12,-41.03 8.51,-11.08 51.98,-40.74 65.91,-50.25 12.46,-8.51 23.36,-17.2 34.59,-25.54 7.22,-5.37 10.83,-6.41 16.97,-11.55 7.19,-6.03 6.8,-7.61 14.89,-13.42 26.41,-18.96 115.46,-91.41 135,-96.95l-0.41 -21.66c-0.68,5.15 11.16,22.23 19.44,28.45l58.01 -26.57c7.4,-3.68 3.1,-1.38 7.3,-4.26l-2.07 -24.68zm68.44 63.87c2.46,-12.15 18.38,-18.93 27.94,-24.74 12,-7.29 20.57,-13.51 32.49,-21.15 24.86,-15.92 54.12,-40.32 65.52,-31.18 -4.29,11.86 -47.48,36.86 -60.83,45.01 -20.7,12.65 -52.95,40.65 -65.12,32.06zm6.73 -109.95c0.25,-10.77 -12.35,-26.08 -18.89,-36.43 -22.84,-1.93 -37.64,6.15 -47.43,-15.46 -11.73,-25.86 6.05,-19.33 8.94,-47.85 18.43,7.74 11.16,-1.39 28.99,1.02 11.97,1.62 9.87,6.15 17.04,9.3l-7.01 7.9c-9.47,-2.66 -7.33,-5.66 -24.21,-6.01 4,14.71 13.19,23.99 20.44,35.07 54.84,-12.1 58.49,26.12 46.3,46.11 -5.94,9.74 -5.9,0.32 -5.55,13 0.18,6.37 8.17,10.36 0.16,10.31 -6.31,-0.04 -3.4,-2.68 -5.85,-8.97 -30.93,6.7 -29.11,8.25 -48.47,-9.29 4.12,-6.42 1.78,-4.23 8.57,-8.08 5.67,7.36 13.31,10.27 26.97,9.38zm-159.08 -120.09c-0.58,-13.91 14.55,-18.1 25.88,-25 19.43,-11.83 89.77,-65.05 98.7,-55.77 8.56,8.89 -15.04,18.82 -23.19,23.77 -11.56,7.01 -20.61,14.01 -32.54,21.09 -24.4,14.49 -54.51,39.95 -68.85,35.91zm-311.03 315.66c-11.62,-19.8 -23.69,-89.99 -25.37,-116.39 -6.05,-95 8.31,-157.83 46.11,-240.52 26.22,-57.37 57.34,-93.11 99.79,-133.94 6.04,-5.81 3.14,-4.09 8.59,-10.17l61.78 -45.64c153.66,-94.42 347.88,-93.54 497.29,5.31 66.48,43.98 46.93,37.27 88.65,75.72 16.87,15.56 8.16,4.83 24.79,29.35 53.67,79.09 90.78,143.24 96.11,258.29 5.15,111.3 -14.94,145.7 -48.81,237.05 -11.48,-22.82 5.64,-28.88 -33.53,-39.31l-7.56 -2.37c0,-38.48 -3.51,-44.79 -43.26,-44.74 -47.99,0.07 -236.12,3.46 -257.12,-1.5l93.47 -60.4c17.6,-11.34 37.66,-17.17 39.75,-39.32 1.26,-13.36 -2.57,-20.45 -10.07,-29.55 -25.58,-31.06 0.86,20.22 -53.32,-63.73l-92.99 -140.64c-7.41,-11.44 -26.83,-36.66 -26.54,-48.02 0.57,-23.13 -8.82,-44.95 -28.76,-49.22 -23.46,-5.03 -73.48,36.82 -100.33,53.75 -49.28,31.09 -85.18,43.36 -63.09,81.7 15.05,26.14 22.61,10.98 40.23,38.89 6.73,10.66 25.36,36.22 28.82,46.89 -38.25,49.37 -34.27,32.52 -58.59,57.76 1.8,11.24 3.23,9.81 6.49,18.06 -36.39,28.67 -162.12,92.27 -213.18,122.88 -19.55,11.72 -49.56,31.4 -69.35,39.81z"/>
   <path class="fil1" d="M343.78 1194.73c-6.75,-4.55 -16.34,-9.19 -29.68,-16.51 9.73,5.75 19.62,11.27 29.68,16.51z"/>
   <path class="fil2" d="M1165.91 294.1c5.02,10.34 8.75,19.62 15.4,25.24 -4.94,-8.54 -10.07,-16.96 -15.4,-25.24zm99.84 332.47l-3.27 -28.68c0.08,39.72 2.24,74.64 -1.9,112.93 -4.18,38.59 -11.53,62.88 -20.38,97.19 -40.46,156.87 -170.5,313.62 -321.06,388.47 0.35,0.49 0.68,0.95 0.98,1.4 205.15,-104.13 345.74,-317.08 345.74,-562.89 0,-2.81 -0.07,-5.61 -0.11,-8.42z"/>
   <path class="fil3" d="M197.52 785.08c19.79,-8.41 49.8,-28.09 69.35,-39.81 51.06,-30.61 176.79,-94.21 213.18,-122.88 -3.26,-8.25 -4.69,-6.82 -6.49,-18.06 24.32,-25.24 20.34,-8.39 58.59,-57.76 -3.46,-10.67 -22.09,-36.23 -28.82,-46.89 -17.62,-27.91 -25.18,-12.75 -40.23,-38.89 -22.09,-38.34 13.81,-50.61 63.09,-81.7 26.85,-16.93 76.87,-58.78 100.33,-53.75 19.94,4.27 29.33,26.09 28.76,49.22 -0.29,11.36 19.13,36.58 26.54,48.02l92.99 140.64c54.18,83.95 27.74,32.67 53.32,63.73 7.5,9.1 11.33,16.19 10.07,29.55 -2.09,22.15 -22.15,27.98 -39.75,39.32l-93.47 60.4c21,4.96 209.13,1.57 257.12,1.5 39.75,-0.05 43.26,6.26 43.26,44.74l7.56 2.37c39.17,10.43 22.05,16.49 33.53,39.31 33.87,-91.35 53.96,-125.75 48.81,-237.05 -5.33,-115.05 -42.44,-179.2 -96.11,-258.29 -16.63,-24.52 -7.92,-13.79 -24.79,-29.35 -41.72,-38.45 -22.17,-31.74 -88.65,-75.72 -149.41,-98.85 -343.63,-99.73 -497.29,-5.31l-61.78 45.64c-5.45,6.08 -2.55,4.36 -8.59,10.17 -42.45,40.83 -73.57,76.57 -99.79,133.94 -37.8,82.69 -52.16,145.52 -46.11,240.52 1.68,26.4 13.75,96.59 25.37,116.39z"/>
   <path class="fil4" d="M594.53 660.27c-4.2,2.88 0.1,0.58 -7.3,4.26l-58.01 26.57c-8.28,-6.22 -20.12,-23.3 -19.44,-28.45l0.41 21.66c-19.54,5.54 -108.59,77.99 -135,96.95 -8.09,5.81 -7.7,7.39 -14.89,13.42 -6.14,5.14 -9.75,6.18 -16.97,11.55 -11.23,8.34 -22.13,17.03 -34.59,25.54 -13.93,9.51 -57.4,39.17 -65.91,50.25 13.76,14.34 18.14,27.42 30.12,41.03 17.3,19.67 34.98,38.86 55.38,55.16 30.38,24.27 17.2,19.7 64.56,48.9 147.99,91.25 337.89,90.17 487.67,-3.11 21.27,-13.24 44.05,-34.04 63.8,-49.6 16.79,-13.23 41.85,-41.63 54.91,-58.79 6.3,-8.26 7.24,-13.85 14.32,-19.4l-481.36 -0.84c0,-108.58 -7.34,-88.39 110.72,-88.39l75.8 0.29c12.36,-1.1 10.94,-0.85 12.33,-12.1l-157.53 -1.99c-0.14,-49.76 26.94,-30.82 77.39,-36.36 -26.48,-30.33 3.23,-30.33 -21.17,-64.6l-37.31 -56.63 2.07 24.68z"/>
   <path class="fil5" d="M920.12 1197.88c-0.3,-0.45 -0.63,-0.91 -0.98,-1.4 -17.21,7.22 -39.84,18.08 -55.23,26.3l0.26 0.14c19.12,-7.46 37.79,-15.83 55.95,-25.04z"/>
   <path class="fil3" d="M1224.5 410.22l0.18 2.12 2.73 5.31c-4.33,-11.83 -9.04,-23.47 -14.07,-34.94 0.38,1 0.75,2.04 1.13,3.14 3.19,9.26 4.5,16.32 10.03,24.37zm36.73 148.24c-0.38,-0.37 -0.83,-0.89 -1.36,-1.61l2.61 41.04 3.27 28.68c-0.3,-23.02 -1.82,-45.75 -4.52,-68.11zm-73.69 -228.08c4.54,11.1 10.81,22.61 17.01,33.86 1.06,1.93 2.03,3.72 2.94,5.47 -6.21,-13.37 -12.86,-26.49 -19.95,-39.33z"/>
   <path class="fil3" d="M657.57 548.11c25.68,-6.7 30.21,13.24 23.6,33.84 -7.64,-2.6 -3.54,0.11 -8.68,-5.02 -12.2,-12.19 -14.91,-28.79 -14.92,-28.82zm-42.21 -38.7c10.42,4.58 19.13,21.7 23.08,31.8 -24.34,1.8 -32.54,-12.17 -23.08,-31.8zm33.38 43.67c6.54,10.35 19.14,25.66 18.89,36.43 -13.66,0.89 -21.3,-2.02 -26.97,-9.38 -6.79,3.85 -4.45,1.66 -8.57,8.08 19.36,17.54 17.54,15.99 48.47,9.29 2.45,6.29 -0.46,8.93 5.85,8.97 8.01,0.05 0.02,-3.94 -0.16,-10.31 -0.35,-12.68 -0.39,-3.26 5.55,-13 12.19,-19.99 8.54,-58.21 -46.3,-46.11 -7.25,-11.08 -16.44,-20.36 -20.44,-35.07 16.88,0.35 14.74,3.35 24.21,6.01l7.01 -7.9c-7.17,-3.15 -5.07,-7.68 -17.04,-9.3 -17.83,-2.41 -10.56,6.72 -28.99,-1.02 -2.89,28.52 -20.67,21.99 -8.94,47.85 9.79,21.61 24.59,13.53 47.43,15.46z"/>
   <path class="fil6" d="M1224.5 410.22l0.18 2.12 -0.18 -2.12zm3.43 8.86c16.15,44.35 27.45,91.02 33.3,139.38 -0.38,-0.37 -0.83,-0.89 -1.36,-1.61 -3.45,-25.71 -7.17,-48.79 -13.41,-73.04 -4.92,-19.07 -15.79,-49.16 -18.53,-64.73z"/>
   <path class="fil3" d="M508.55 469.42c14.34,4.04 44.45,-21.42 68.85,-35.91 11.93,-7.08 20.98,-14.08 32.54,-21.09 8.15,-4.95 31.75,-14.88 23.19,-23.77 -8.93,-9.28 -79.27,43.94 -98.7,55.77 -11.33,6.9 -26.46,11.09 -25.88,25z"/>
   <path class="fil3" d="M660.9 699.46c12.17,8.59 44.42,-19.41 65.12,-32.06 13.35,-8.15 56.54,-33.15 60.83,-45.01 -11.4,-9.14 -40.66,15.26 -65.52,31.18 -11.92,7.64 -20.49,13.86 -32.49,21.15 -9.56,5.81 -25.48,12.59 -27.94,24.74z"/>
   <path class="fil0" d="M681.17 581.95c6.61,-20.6 2.08,-40.54 -23.6,-33.84 0.01,0.03 2.72,16.63 14.92,28.82 5.14,5.13 1.04,2.42 8.68,5.02z"/>
   <path class="fil0" d="M615.36 509.41c-9.46,19.63 -1.26,33.6 23.08,31.8 -3.95,-10.1 -12.66,-27.22 -23.08,-31.8z"/>
  </g>
 </g>
</svg>
