<?xml version="1.0" encoding="UTF-8"?>
<!DOCTYPE svg PUBLIC "-//W3C//DTD SVG 1.1//EN" "http://www.w3.org/Graphics/SVG/1.1/DTD/svg11.dtd">
<!-- Creator: CorelDRAW -->
<svg xmlns="http://www.w3.org/2000/svg" xml:space="preserve" width="76.1998mm" height="16.9332mm" version="1.1" style="shape-rendering:geometricPrecision; text-rendering:geometricPrecision; image-rendering:optimizeQuality; fill-rule:evenodd; clip-rule:evenodd"
viewBox="0 0 7619.98 1693.32"
 xmlns:xlink="http://www.w3.org/1999/xlink"
 xmlns:xodm="http://www.corel.com/coreldraw/odm/2003">
 <defs>
  <style type="text/css">
   <![CDATA[
    .fil0 {fill:#1A120E}
    .fil5 {fill:#2B3235}
    .fil4 {fill:#3C5261}
    .fil1 {fill:#55290C}
    .fil2 {fill:#624D32}
    .fil8 {fill:#A08243}
    .fil3 {fill:#A18343}
    .fil6 {fill:#C5AD84}
    .fil7 {fill:#C5B197}
   ]]>
  </style>
 </defs>
 <g id="Camada_x0020_1">
  <metadata id="CorelCorpID_0Corel-Layer"/>
  <g id="_2701766365680">
   <g>
    <path class="fil0" d="M913.38 25.11c290.19,0 545.24,150.46 691.39,377.63 6.54,13.46 11.39,25.54 20.06,32.86 2.75,4.77 5.45,9.57 8.11,14.39 5.92,14.44 14.08,29.44 22.14,44.09 1.39,2.51 2.65,4.84 3.84,7.11 2.6,5.61 5.14,11.26 7.62,16.93 0.49,1.31 0.98,2.67 1.47,4.09 4.15,12.06 5.86,21.25 13.05,31.74l0.25 2.76 3.56 6.91 0.67 1.87c3.56,20.28 17.72,59.46 24.12,84.29 8.14,31.58 12.97,61.63 17.47,95.12l3.4 53.44c0.11,51.72 2.92,97.2 -2.48,147.06 -5.44,50.26 -15.02,81.89 -26.54,126.56 -52.69,204.29 -222.03,408.42 -418.09,505.9 -22.42,9.4 -51.88,23.53 -71.93,34.24l0.34 0.18c-92.51,36.08 -193.16,55.92 -298.45,55.92 -136.8,0 -265.77,-33.48 -379.22,-92.63 -8.79,-5.92 -21.28,-11.97 -38.65,-21.5 -241.62,-143.04 -403.67,-406.28 -403.67,-707.42 0,-453.72 367.82,-821.54 821.54,-821.54zm-55.38 822.32l48.59 73.76c31.78,44.62 -6.92,44.63 27.56,84.12 -65.7,7.22 -100.95,-17.45 -100.78,47.34l205.15 2.6c-1.81,14.65 0.03,14.33 -16.05,15.76l-98.72 -0.38c-153.75,0 -144.18,-26.3 -144.18,115.1l626.84 1.09c-9.22,7.23 -10.44,14.51 -18.65,25.27 -17.01,22.34 -49.64,59.33 -71.51,76.56 -25.71,20.26 -55.38,47.34 -83.08,64.59 -195.04,121.47 -442.34,122.88 -635.06,4.05 -61.67,-38.02 -44.51,-32.08 -84.07,-63.68 -26.56,-21.23 -49.59,-46.21 -72.12,-71.83 -15.6,-17.73 -21.3,-34.75 -39.22,-53.44 11.08,-14.42 67.69,-53.05 85.82,-65.43 16.23,-11.08 30.44,-22.4 45.05,-33.26 9.4,-6.99 14.11,-8.34 22.1,-15.04 9.37,-7.85 8.86,-9.92 19.4,-17.48 34.38,-24.68 150.35,-119.04 175.8,-126.24l-0.54 -28.21c-0.88,6.7 14.53,28.95 25.32,37.05l75.54 -34.61c9.64,-4.8 4.04,-1.79 9.5,-5.55l-2.69 -32.14zm89.13 83.18c3.19,-15.83 23.93,-24.65 36.38,-32.21 15.63,-9.5 26.79,-17.61 42.31,-27.54 32.37,-20.74 70.47,-52.52 85.33,-40.62 -5.59,15.45 -61.84,48.01 -79.23,58.63 -26.95,16.46 -68.95,52.92 -84.79,41.74zm8.76 -143.19c0.32,-14.02 -16.08,-33.95 -24.59,-47.43 -29.75,-2.52 -49.02,8 -61.78,-20.14 -15.27,-33.67 7.88,-25.16 11.65,-62.31 24,10.08 14.53,-1.8 37.74,1.33 15.6,2.11 12.86,8.01 22.2,12.11l-9.13 10.29c-12.33,-3.46 -9.54,-7.37 -31.53,-7.83 5.21,19.16 17.19,31.24 26.62,45.67 71.42,-15.75 76.17,34.02 60.3,60.05 -7.74,12.69 -7.69,0.41 -7.23,16.93 0.23,8.29 10.63,13.49 0.21,13.42 -8.22,-0.05 -4.44,-3.48 -7.62,-11.67 -40.28,8.71 -37.9,10.74 -63.12,-12.1 5.37,-8.36 2.32,-5.52 11.16,-10.52 7.39,9.58 17.33,13.37 35.12,12.2zm-207.16 -156.38c-0.76,-18.11 18.94,-23.57 33.7,-32.55 25.31,-15.4 116.9,-84.71 128.53,-72.63 11.15,11.58 -19.58,24.51 -30.2,30.96 -15.04,9.13 -26.83,18.23 -42.37,27.46 -31.78,18.86 -70.99,52.02 -89.66,46.76zm-405.04 411.07c-15.13,-25.78 -30.85,-117.19 -33.04,-151.57 -7.88,-123.71 10.83,-205.53 60.05,-313.22 34.15,-74.7 74.67,-121.25 129.95,-174.41 7.87,-7.57 4.1,-5.33 11.19,-13.26l80.45 -59.43c200.1,-122.95 453.02,-121.8 647.6,6.92 86.56,57.27 61.11,48.54 115.44,98.61 21.97,20.25 10.62,6.29 32.28,38.22 69.88,102.99 118.22,186.53 125.15,336.35 6.71,144.94 -19.44,189.73 -63.55,308.7 -14.96,-29.71 7.34,-37.61 -43.67,-51.2l-9.85 -3.08c0,-50.11 -4.56,-58.32 -56.33,-58.26 -62.5,0.09 -307.48,4.5 -334.83,-1.95l121.72 -78.65c22.92,-14.78 49.05,-22.37 51.77,-51.21 1.64,-17.4 -3.36,-26.64 -13.12,-38.49 -33.31,-40.45 1.12,26.34 -69.44,-82.99l-121.1 -183.15c-9.63,-14.89 -34.93,-47.73 -34.56,-62.53 0.75,-30.11 -11.47,-58.53 -37.44,-64.1 -30.55,-6.55 -95.7,47.95 -130.65,70 -64.18,40.48 -110.93,56.46 -82.17,106.4 19.61,34.03 29.45,14.3 52.39,50.64 8.76,13.88 33.03,47.17 37.53,61.06 -49.8,64.29 -44.62,42.34 -76.29,75.22 2.33,14.63 4.2,12.77 8.44,23.51 -47.39,37.34 -211.11,120.17 -277.61,160.02 -25.45,15.26 -64.53,40.9 -90.31,51.85z"/>
    <path class="fil1" d="M534.16 1575.57c-8.79,-5.92 -21.28,-11.97 -38.65,-21.5 12.67,7.49 25.55,14.68 38.65,21.5z"/>
    <path class="fil2" d="M1604.77 402.74c6.54,13.46 11.39,25.54 20.06,32.86 -6.44,-11.12 -13.12,-22.08 -20.06,-32.86zm130.02 432.96l-4.26 -37.36c0.11,51.72 2.92,97.2 -2.48,147.06 -5.44,50.26 -15.02,81.89 -26.54,126.56 -52.69,204.29 -222.03,408.42 -418.09,505.9 0.46,0.63 0.88,1.23 1.27,1.81 267.16,-135.6 450.24,-412.91 450.24,-733.02 0,-3.66 -0.09,-7.3 -0.14,-10.95z"/>
    <path class="fil3" d="M343.69 1042.11c25.78,-10.95 64.86,-36.59 90.31,-51.85 66.5,-39.85 230.22,-122.68 277.61,-160.02 -4.24,-10.74 -6.11,-8.88 -8.44,-23.51 31.67,-32.88 26.49,-10.93 76.29,-75.22 -4.5,-13.89 -28.77,-47.18 -37.53,-61.06 -22.94,-36.34 -32.78,-16.61 -52.39,-50.64 -28.76,-49.94 17.99,-65.92 82.17,-106.4 34.95,-22.05 100.1,-76.55 130.65,-70 25.97,5.57 38.19,33.99 37.44,64.1 -0.37,14.8 24.93,47.64 34.56,62.53l121.1 183.15c70.56,109.33 36.13,42.54 69.44,82.99 9.76,11.85 14.76,21.09 13.12,38.49 -2.72,28.84 -28.85,36.43 -51.77,51.21l-121.72 78.65c27.35,6.45 272.33,2.04 334.83,1.95 51.77,-0.06 56.33,8.15 56.33,58.26l9.85 3.08c51.01,13.59 28.71,21.49 43.67,51.2 44.11,-118.97 70.26,-163.76 63.55,-308.7 -6.93,-149.82 -55.27,-233.36 -125.15,-336.35 -21.66,-31.93 -10.31,-17.97 -32.28,-38.22 -54.33,-50.07 -28.88,-41.34 -115.44,-98.61 -194.58,-128.72 -447.5,-129.87 -647.6,-6.92l-80.45 59.43c-7.09,7.93 -3.32,5.69 -11.19,13.26 -55.28,53.16 -95.8,99.71 -129.95,174.41 -49.22,107.69 -67.93,189.51 -60.05,313.22 2.19,34.38 17.91,125.79 33.04,151.57z"/>
    <path class="fil4" d="M860.69 879.57c-5.46,3.76 0.14,0.75 -9.5,5.55l-75.54 34.61c-10.79,-8.1 -26.2,-30.35 -25.32,-37.05l0.54 28.21c-25.45,7.2 -141.42,101.56 -175.8,126.24 -10.54,7.56 -10.03,9.63 -19.4,17.48 -7.99,6.7 -12.7,8.05 -22.1,15.04 -14.61,10.86 -28.82,22.18 -45.05,33.26 -18.13,12.38 -74.74,51.01 -85.82,65.43 17.92,18.69 23.62,35.71 39.22,53.44 22.53,25.62 45.56,50.6 72.12,71.83 39.56,31.6 22.4,25.66 84.07,63.68 192.72,118.83 440.02,117.42 635.06,-4.05 27.7,-17.25 57.37,-44.33 83.08,-64.59 21.87,-17.23 54.5,-54.22 71.51,-76.56 8.21,-10.76 9.43,-18.04 18.65,-25.27l-626.84 -1.09c0,-141.4 -9.57,-115.1 144.18,-115.1l98.72 0.38c16.08,-1.43 14.24,-1.11 16.05,-15.76l-205.15 -2.6c-0.17,-64.79 35.08,-40.12 100.78,-47.34 -34.48,-39.49 4.22,-39.5 -27.56,-84.12l-48.59 -73.76 2.69 32.14z"/>
    <path class="fil5" d="M1284.69 1579.67c-0.39,-0.58 -0.81,-1.18 -1.27,-1.81 -22.42,9.4 -51.88,23.53 -71.93,34.24l0.34 0.18c24.9,-9.72 49.21,-20.61 72.86,-32.61z"/>
    <path class="fil3" d="M1681.06 553.95l0.25 2.76 3.56 6.91c-5.66,-15.39 -11.79,-30.56 -18.33,-45.5 0.49,1.31 0.98,2.67 1.47,4.09 4.15,12.06 5.86,21.25 13.05,31.74zm47.84 193.04c-0.5,-0.48 -1.08,-1.16 -1.77,-2.09l3.4 53.44 4.26 37.36c-0.4,-29.99 -2.37,-59.58 -5.89,-88.71zm-95.96 -297c5.92,14.44 14.08,29.44 22.14,44.09 1.39,2.51 2.65,4.84 3.84,7.11 -8.09,-17.4 -16.74,-34.48 -25.98,-51.2z"/>
    <path class="fil3" d="M942.79 733.51c33.44,-8.71 39.34,17.25 30.73,44.07 -9.94,-3.38 -4.61,0.14 -11.3,-6.54 -15.89,-15.87 -19.42,-37.49 -19.43,-37.53zm-54.97 -50.39c13.57,5.96 24.92,28.26 30.06,41.41 -31.7,2.35 -42.37,-15.85 -30.06,-41.41zm43.48 56.87c8.51,13.48 24.91,33.41 24.59,47.43 -17.79,1.17 -27.73,-2.62 -35.12,-12.2 -8.84,5 -5.79,2.16 -11.16,10.52 25.22,22.84 22.84,20.81 63.12,12.1 3.18,8.19 -0.6,11.62 7.62,11.67 10.42,0.07 0.02,-5.13 -0.21,-13.42 -0.46,-16.52 -0.51,-4.24 7.23,-16.93 15.87,-26.03 11.12,-75.8 -60.3,-60.05 -9.43,-14.43 -21.41,-26.51 -26.62,-45.67 21.99,0.46 19.2,4.37 31.53,7.83l9.13 -10.29c-9.34,-4.1 -6.6,-10 -22.2,-12.11 -23.21,-3.13 -13.74,8.75 -37.74,-1.33 -3.77,37.15 -26.92,28.64 -11.65,62.31 12.76,28.14 32.03,17.62 61.78,20.14z"/>
    <path class="fil6" d="M1681.06 553.95l0.25 2.76 -0.25 -2.76zm4.48 11.54c21.03,57.75 35.74,118.53 43.36,181.5 -0.5,-0.48 -1.08,-1.16 -1.77,-2.09 -4.5,-33.49 -9.33,-63.54 -17.47,-95.12 -6.4,-24.83 -20.56,-64.01 -24.12,-84.29z"/>
    <path class="fil3" d="M748.73 631.04c18.67,5.26 57.88,-27.9 89.66,-46.76 15.54,-9.23 27.33,-18.33 42.37,-27.46 10.62,-6.45 41.35,-19.38 30.2,-30.96 -11.63,-12.08 -103.22,57.23 -128.53,72.63 -14.76,8.98 -34.46,14.44 -33.7,32.55z"/>
    <path class="fil3" d="M947.13 930.61c15.84,11.18 57.84,-25.28 84.79,-41.74 17.39,-10.62 73.64,-43.18 79.23,-58.63 -14.86,-11.9 -52.96,19.88 -85.33,40.62 -15.52,9.93 -26.68,18.04 -42.31,27.54 -12.45,7.56 -33.19,16.38 -36.38,32.21z"/>
    <path class="fil0" d="M973.52 777.58c8.61,-26.82 2.71,-52.78 -30.73,-44.07 0.01,0.04 3.54,21.66 19.43,37.53 6.69,6.68 1.36,3.16 11.3,6.54z"/>
    <path class="fil0" d="M887.82 683.12c-12.31,25.56 -1.64,43.76 30.06,41.41 -5.14,-13.15 -16.49,-35.45 -30.06,-41.41z"/>
   </g>
   <g>
    <path class="fil7" d="M7185.9 1038.86c-33.91,0 -128.06,3.94 -154.03,-2.71 -38.36,-9.81 -58.9,-57.02 -34.06,-98.9 20.28,-34.19 76.97,-26.96 125.24,-26.96 50.1,0 101.39,-0.97 151.22,0.43l-82.81 127.99c34.72,0.47 121.18,-4.2 149.34,1.92 37.7,8.2 63.92,55.94 39.08,96.27 -24.6,39.95 -69,29.9 -122.25,29.9 -50.61,0 -101.78,0.75 -152.31,-0.25 18.2,-38 69,-95.79 80.58,-127.69zm166.77 -255.13c-86.73,-6.71 -196.71,-0.76 -286.06,-0.93 -262.19,-0.49 -237.74,240.59 -179.96,316.29 47.85,62.68 112.41,67 215.16,67.86 -8.72,19.66 -26.36,43.99 -38.1,61.99 -11.61,17.81 -32.22,46.1 -38.93,65.78 96.43,0.05 192.86,-0.18 289.29,0.02 253.39,0.53 237.4,-232.83 175.47,-316.55 -41.18,-55.66 -118.43,-71.76 -215.27,-67.47l78.4 -126.99z"/>
    <path class="fil7" d="M5740.55 910.24c30.3,-6.28 117.6,-3.14 154.09,-2.6 162.72,2.41 160.82,238.83 27.23,260.52 -34.73,5.64 -119.03,3.36 -157.84,2.04 -152.45,-5.19 -164.03,-230.79 -23.48,-259.96zm-234.77 156.62c5.99,91.44 50.15,155.46 103.53,189.6 78.43,50.17 147.17,41.55 250.38,41.55 51.71,0.01 89.16,2.17 136.16,-12.33 114.65,-35.36 168.76,-146.79 160.38,-275.4 -6.1,-93.53 -52.58,-154.96 -105.84,-190.57 -70.63,-47.23 -156.48,-40.59 -251.48,-40.63 -85.04,-0.04 -164.03,5.78 -224.59,67.54 -44.29,45.17 -74.49,129.43 -68.54,220.24z"/>
    <path class="fil7" d="M4381.91 1294.73c9.16,-29.5 187.36,-411.49 198.67,-423l135.62 294.83 -144.97 1.12c-13.13,21.36 -25.39,40.32 -38.67,61.26 -12.1,19.06 -30.69,44.1 -39.1,65.79 89.26,0 178.58,-0.29 267.84,0.03 88.94,0.33 147.04,-33.61 108.94,-128.47 -24.32,-60.55 -138.64,-312.35 -173.16,-347.78 -43.72,-44.87 -120.93,-68.75 -193.95,-31.55 -59.94,30.54 -77.84,81.87 -109.84,150.68 -27.49,59.13 -53.91,119.5 -82.98,177.46 -14.88,29.68 -27.06,58.73 -41.49,88.75 -12.62,26.26 -32.63,64.73 -40.91,90.72l154 0.16z"/>
    <path class="fil7" d="M5163.21 1294.86c-1.7,15.06 -14.85,23.77 -22.23,42.6 38.23,-0.1 76.22,2.75 70.89,45.47 -4.72,37.83 -38.58,37.36 -75.16,46.07l-1.54 22.37c177.19,10.82 149.83,-100.51 122.98,-121.64 -19.32,-15.21 -47.47,-14.35 -77.79,-17.68 3.93,-4.11 9.02,-13.06 12.19,-17.32 222.73,-0.01 171.98,18.85 225.66,-61.58 15.59,-23.38 27.65,-41.49 40.25,-65.16 -126.91,-14.81 -309,21.85 -366.28,-23.97 -85.37,-68.3 -56.4,-219.07 60.17,-232.49 74.57,-8.58 184.97,0.14 264.39,-1.48 22.14,-39.97 60.88,-86.71 78.33,-126.73 -108.04,-4.35 -229.87,-2.02 -338.7,-0.48 -264.38,3.74 -289.25,277.02 -218.45,393.96 42.52,70.26 109.9,116.45 225.29,118.06z"/>
    <path class="fil7" d="M6795.95 1167.68c-97.61,-8.12 -223.17,0.05 -324.25,-0.78 -52.54,-0.44 -93.09,-23.09 -109.78,-55.32 -18.11,-34.97 -24.26,-93.45 -5.41,-134 40.92,-88.02 149.04,-67.29 258.59,-67.29 127,0 116.07,12.64 139.46,-25.25 18.75,-30.4 51.77,-71.54 63.06,-102.19 -74.7,-0.12 -357.16,-4.15 -409.56,3.63 -248.42,36.92 -264.53,384.14 -75.03,479.98 86.73,43.87 267.84,28.27 377.58,28.27 13.4,-3.16 77.34,-110.99 85.34,-127.05z"/>
    <path class="fil7" d="M3302.58 1294.73c15.38,-6.5 3.2,2.81 15.36,-12.91l70.83 -114.76c-84.42,-1.92 -170.88,-0.34 -255.51,-0.26 -43.48,0.05 -79.5,-0.6 -109.76,-20.57 -68.88,-45.45 -83.16,-220.65 62.05,-234.95 74.37,-7.33 183.57,-0.99 261.65,-0.99 16.54,-28.12 70.77,-105.77 78.4,-127.4 -71.91,-0.34 -337.87,-3.97 -390.04,3.86 -244.63,36.73 -254.96,375.58 -91.56,469.34 97.06,55.71 234.63,38.64 358.58,38.64z"/>
    <path class="fil7" d="M3922.66 910.28c10.94,8.56 5.1,76.67 5.1,91.46 0,77.33 3.9,230.9 -0.96,291.83l135.86 -1.09 -0.33 -360.47c0.41,-19.6 1.06,-15.47 5.47,-21.53l181.21 -0.19c14.19,-6.48 77.07,-108.43 84.53,-127.47l-584.65 0.72c-11.49,28.38 -66.27,96.8 -77.03,126.72l250.8 0.02z"/>
    <path class="fil7" d="M2057.55 784.45c0,79.67 0,159.33 0,239 0,72.01 -8.06,158.02 29.53,208.31 41.18,55.1 90.31,62.98 177.89,62.97 78.15,-0.02 156.3,0 234.44,0 9.87,-2.54 78.78,-113.77 85,-126.63 -72.33,-9.21 -333.72,17.94 -370.8,-15.08 -28.68,-25.56 -17.03,-131.07 -17.03,-177.33 0,-64.28 0,-128.57 0,-192.99l-139.03 1.75z"/>
    <polygon class="fil7" points="2629.93,1294.56 2769.04,1294.23 2769.06,783.2 2751.22,782.83 2647.01,782.6 2629.93,783.96 "/>
    <polygon class="fil7" points="3486.07,1294.43 3624.92,1294.73 3624.93,782.83 3502.25,782.49 3486.08,784.51 "/>
    <polygon class="fil8" points="2051.28,529.49 2269.42,528.77 2268.98,476.83 2105.2,476.77 2104.96,412 2262.96,411.3 2263.16,360.85 2105.42,358.87 2104.78,293.71 2268.18,293.14 2269.68,241.21 2054.41,241.21 "/>
    <path class="fil7" d="M6378.9 1103.15l312.22 0.05c15.02,-35.05 64.12,-95.47 77.6,-128.59l-312.16 -0.05c-15.93,35.63 -68.95,102.39 -77.66,128.59z"/>
    <path class="fil8" d="M3730.8 530.66l52.15 0.2c0,-53.88 -17.73,-158.45 41.12,-161.01 31.08,-1.35 42.81,26.97 43.71,58.6 0.84,30 -3.34,74.29 1.62,101.96l47.62 0.47c11.15,-53.72 -21.01,-153.91 41.43,-159.88 66.6,-6.37 34.47,110.09 45.13,159.63l47.51 -0.01c7.37,-42.82 7.06,-142.94 -15.75,-174.71 -15.07,-20.98 -31.24,-32.7 -68.52,-32.68 -41.49,0.01 -50.31,14.5 -69.47,33.02l-9.21 -9.42c-32.23,-33.7 -69.68,-33.53 -103.66,-2.25 -12.11,-19.07 12.55,-19.31 -52.13,-19.25l-1.55 205.33z"/>
    <path class="fil8" d="M2631.06 376.3c70.34,-32.5 113.52,72.69 46.59,104.59 -34.63,16.51 -68.48,-6.03 -78.02,-31.05 -13.02,-34.18 1.03,-59.49 31.43,-73.54zm-41.09 -25.99l-3.32 -25.02 -46.28 0.34 -0.82 289.6 50.89 1.61 0.2 -107.33c32.83,18.19 60,41.37 115.04,16.94 32.54,-14.45 56.5,-48.87 56.29,-97.8 -0.32,-73.25 -58.73,-116.64 -121.28,-105.66 -24.99,4.39 -36.12,18.77 -50.72,27.32z"/>
    <path class="fil8" d="M3536.24 403.16c14.81,-48.11 93.04,-54.16 106.85,0.36l-106.85 -0.36zm143.54 99.32c-8.67,-12.84 -17.52,-19.59 -29.89,-29.92 -41.5,20.04 -105.87,31.04 -114.47,-26.53l157.62 0c7.26,-66.04 -18.43,-110 -71.81,-123 -144.11,-35.08 -184.01,148.38 -90.02,198.44 49.01,26.09 119.91,15.3 148.57,-18.99z"/>
    <path class="fil8" d="M2848.97 403.49c7.54,-24.63 23.89,-37.53 54.21,-37.99 32.64,-0.5 47.44,9.53 52.36,37.93l-106.57 0.06zm144.16 98.99l-29.32 -29.22c-23.85,6.79 -32.61,19.13 -67.96,15.13 -30.41,-3.43 -43.4,-15.71 -48.31,-41.68l158.67 -0.87c14.46,-155.21 -164.89,-160.63 -204.39,-62.32 -52.81,131.43 110.92,198.56 191.31,118.96z"/>
    <path class="fil8" d="M2372.04 424.77c-12.92,30.6 -62.64,80.75 -66.84,106.05l57.02 -0.18c17.85,-21.31 25.28,-44.59 44.88,-65.29 13.4,12.72 36.17,65.47 53.24,65.47l49.99 -0.26c-2.97,-16.57 -62.55,-89.87 -64.88,-99.68 -3.6,-15.14 53.1,-83.31 61.82,-105.58l-59.76 0.04c-9.81,16.62 -28.92,53.79 -40.84,66.42l-39.11 -65.86 -59.62 -0.68c2.61,15.98 52.19,85.35 64.1,99.55z"/>
    <path class="fil8" d="M3258.51 323.17c-10.79,7.56 -9.82,4.47 -35.55,4.47l0 39.66c15.41,0 25.08,-2.68 36.49,4.3 -0.97,36.74 -4.98,104.54 11.08,132.57 17.68,30.84 69.85,37.81 104.39,19.31l-12.63 -41.59c-18.64,4.83 -27.19,6.24 -44.91,0.58 -10.34,-24.35 -11.97,-79.94 -4.75,-112.55l55.1 -0.16 -0.69 -43.83 -56.48 -0.12 -0.16 -56.66 -50.48 3.55 -1.41 50.47z"/>
    <path class="fil7" d="M5705.53 739l23.91 0.41c16.64,-19.79 21.8,-43.97 58.88,-35.38 21.04,4.88 38.99,27.18 64.81,35.22 67.06,20.89 102.69,-33.11 105.86,-92.95l-21.16 -0.7c-24.38,12.77 -11.91,49.92 -64.06,34.62 -24.12,-7.08 -40.38,-27.05 -69.72,-35.03 -59.02,-16.04 -104.56,37.6 -98.52,93.81z"/>
    <path class="fil8" d="M3098.43 345.36c-5.71,-21.62 6.02,-20.23 -50.22,-19.72l-0.71 204.68 48.99 0.58c7.52,-36.25 -3.38,-86.65 3.65,-122.54 11.61,-59.31 73.26,-30.62 85.22,-26.48 10.46,-12.43 18.87,-27.83 22.79,-45.53 -44.81,-18.42 -76.71,-28.34 -109.72,9.01z"/>
   </g>
  </g>
 </g>
</svg>
